<?xml version="1.0" encoding="UTF-8" standalone="no"?>
<svg
   xmlns:dc="http://purl.org/dc/elements/1.1/"
   xmlns:cc="http://creativecommons.org/ns#"
   xmlns:rdf="http://www.w3.org/1999/02/22-rdf-syntax-ns#"
   xmlns:svg="http://www.w3.org/2000/svg"
   xmlns="http://www.w3.org/2000/svg"
   viewBox="0 0 120.50467 199.15921"
   height="199.15921"
   width="120.50468"
   xml:space="preserve"
   id="svg300"
   version="1.1"><metadata
     id="metadata306"><rdf:RDF><cc:Work
         rdf:about=""><dc:format>image/svg+xml</dc:format><dc:type
           rdf:resource="http://purl.org/dc/dcmitype/StillImage" /><dc:title></dc:title></cc:Work></rdf:RDF></metadata><defs
     id="defs304"><clipPath
       id="clipPath318"
       clipPathUnits="userSpaceOnUse"><path
         id="path316"
         d="M 0,1190.55 H 841.89 V 0 H 0 Z" /></clipPath></defs><g
     transform="matrix(1.3333333,0,0,-1.3333333,-400.8918,1157.1072)"
     id="g308"><path
       id="path310"
       style="fill:#ffffff;fill-opacity:1;fill-rule:nonzero;stroke:none"
       d="m 0.33,0.55 h 841.559 v 1190 H 0.33 Z" /><g
       id="g352"
       transform="translate(360.0195,761.49845)"><path
         d="m 0,0 c 0.342,4.992 -1.211,9.99 -5.262,12.843 -5.337,3.764 -12.66,6.507 -19.16,4.408 -5.233,-1.685 -10.444,-6.402 -9.979,-12.344 0.456,-5.785 1.154,-11.598 2.32,-17.282 1.187,-5.788 4.964,-8.197 10.721,-6.937 5.296,1.164 10.716,2.965 15.045,6.312 3.647,2.82 5.967,7.909 6.315,13 m -59.333,104.244 c 8.762,0.704 17.068,1.379 25.829,2.088 0.099,-21.148 -0.463,-41.95 1.941,-62.003 8.788,-1.029 17.192,-1.407 25.324,-3.106 C 4.58,38.96 14.837,34.82 21.326,25.121 30.18,13.113 31.076,6.315 31.026,-4.57 30.987,-14.031 25.854,-21.507 19.386,-27.582 7.151,-39.072 -7.653,-43.911 -24.545,-42.909 c -9.765,0.579 -19.294,1.872 -28.621,4.73 -1.403,0.432 -3.293,1.029 -3.293,1.029 0,0 -0.191,2.522 -0.223,3.702 -0.531,23.151 -1.401,46.291 -1.917,69.441 -0.423,18.962 -0.512,37.928 -0.732,56.893 -0.043,3.625 -0.002,7.246 -0.002,11.358"
         style="fill:#edc7bb;fill-opacity:1;fill-rule:evenodd;stroke:none"
         id="path354" /></g></g></svg>
